<svg xmlns="http://www.w3.org/2000/svg" viewBox="0 0 200 72" width="600" height="216" shape-rendering="crispEdges"><style>
.tw{animation:tw 3s steps(2,end) infinite}
@keyframes tw{0%,100%{opacity:1}50%{opacity:.15}}
.bob{animation:bob 1.2s steps(2,end) infinite}
@keyframes bob{0%,100%{transform:translateY(0)}50%{transform:translateY(-2px)}}
.blink{animation:blink 1s steps(1,end) infinite}
@keyframes blink{0%,49%{opacity:1}50%,100%{opacity:0}}
.pop{animation:pop .01s both}
@keyframes pop{from{opacity:0}to{opacity:1}}
</style><rect x="0" y="0" width="200" height="72" fill="#0d0221"/><g fill="#ffffff"><rect x="4" y="4" width="4" height="1"/><rect x="11" y="4" width="3" height="1"/><rect x="17" y="4" width="3" height="1"/><rect x="22" y="4" width="1" height="1"/><rect x="26" y="4" width="1" height="1"/><rect x="28" y="4" width="5" height="1"/><rect x="34" y="4" width="1" height="1"/><rect x="38" y="4" width="1" height="1"/><rect x="40" y="4" width="4" height="1"/><rect x="4" y="5" width="1" height="1"/><rect x="8" y="5" width="1" height="1"/><rect x="10" y="5" width="1" height="1"/><rect x="14" y="5" width="1" height="1"/><rect x="16" y="5" width="1" height="1"/><rect x="20" y="5" width="1" height="1"/><rect x="22" y="5" width="1" height="1"/><rect x="25" y="5" width="1" height="1"/><rect x="28" y="5" width="1" height="1"/><rect x="34" y="5" width="2" height="1"/><rect x="38" y="5" width="1" height="1"/><rect x="40" y="5" width="1" height="1"/><rect x="44" y="5" width="1" height="1"/><rect x="4" y="6" width="1" height="1"/><rect x="8" y="6" width="1" height="1"/><rect x="10" y="6" width="1" height="1"/><rect x="14" y="6" width="1" height="1"/><rect x="16" y="6" width="1" height="1"/><rect x="22" y="6" width="1" height="1"/><rect x="24" y="6" width="1" height="1"/><rect x="28" y="6" width="1" height="1"/><rect x="34" y="6" width="1" height="1"/><rect x="36" y="6" width="1" height="1"/><rect x="38" y="6" width="1" height="1"/><rect x="40" y="6" width="1" height="1"/><rect x="44" y="6" width="1" height="1"/><rect x="4" y="7" width="4" height="1"/><rect x="10" y="7" width="5" height="1"/><rect x="16" y="7" width="1" height="1"/><rect x="22" y="7" width="2" height="1"/><rect x="28" y="7" width="4" height="1"/><rect x="34" y="7" width="1" height="1"/><rect x="37" y="7" width="2" height="1"/><rect x="40" y="7" width="1" height="1"/><rect x="44" y="7" width="1" height="1"/><rect x="4" y="8" width="1" height="1"/><rect x="8" y="8" width="1" height="1"/><rect x="10" y="8" width="1" height="1"/><rect x="14" y="8" width="1" height="1"/><rect x="16" y="8" width="1" height="1"/><rect x="22" y="8" width="1" height="1"/><rect x="24" y="8" width="1" height="1"/><rect x="28" y="8" width="1" height="1"/><rect x="34" y="8" width="1" height="1"/><rect x="38" y="8" width="1" height="1"/><rect x="40" y="8" width="1" height="1"/><rect x="44" y="8" width="1" height="1"/><rect x="4" y="9" width="1" height="1"/><rect x="8" y="9" width="1" height="1"/><rect x="10" y="9" width="1" height="1"/><rect x="14" y="9" width="1" height="1"/><rect x="16" y="9" width="1" height="1"/><rect x="20" y="9" width="1" height="1"/><rect x="22" y="9" width="1" height="1"/><rect x="25" y="9" width="1" height="1"/><rect x="28" y="9" width="1" height="1"/><rect x="34" y="9" width="1" height="1"/><rect x="38" y="9" width="1" height="1"/><rect x="40" y="9" width="1" height="1"/><rect x="44" y="9" width="1" height="1"/><rect x="4" y="10" width="4" height="1"/><rect x="10" y="10" width="1" height="1"/><rect x="14" y="10" width="1" height="1"/><rect x="17" y="10" width="3" height="1"/><rect x="22" y="10" width="1" height="1"/><rect x="26" y="10" width="1" height="1"/><rect x="28" y="10" width="5" height="1"/><rect x="34" y="10" width="1" height="1"/><rect x="38" y="10" width="1" height="1"/><rect x="40" y="10" width="4" height="1"/></g><rect class="pop" style="animation-delay:0.0s" x="88" y="4" width="4" height="7" fill="#ff00cc"/><rect class="pop" style="animation-delay:0.05s" x="93" y="4" width="4" height="7" fill="#f20ccf"/><rect class="pop" style="animation-delay:0.1s" x="98" y="4" width="4" height="7" fill="#e418d1"/><rect class="pop" style="animation-delay:0.15s" x="103" y="4" width="4" height="7" fill="#d724d4"/><rect class="pop" style="animation-delay:0.2s" x="108" y="4" width="4" height="7" fill="#c930d7"/><rect class="pop" style="animation-delay:0.25s" x="113" y="4" width="4" height="7" fill="#bc3cd9"/><rect class="pop" style="animation-delay:0.3s" x="118" y="4" width="4" height="7" fill="#ae48dc"/><rect class="pop" style="animation-delay:0.35s" x="123" y="4" width="4" height="7" fill="#a154df"/><rect class="pop" style="animation-delay:0.4s" x="128" y="4" width="4" height="7" fill="#9460e1"/><rect class="pop" style="animation-delay:0.45s" x="133" y="4" width="4" height="7" fill="#866ce4"/><rect class="pop" style="animation-delay:0.5s" x="138" y="4" width="4" height="7" fill="#7979e7"/><rect class="pop" style="animation-delay:0.55s" x="143" y="4" width="4" height="7" fill="#6b85ea"/><rect class="pop" style="animation-delay:0.6s" x="148" y="4" width="4" height="7" fill="#5e91ec"/><rect class="pop" style="animation-delay:0.65s" x="153" y="4" width="4" height="7" fill="#519def"/><rect class="pop" style="animation-delay:0.7s" x="158" y="4" width="4" height="7" fill="#43a9f2"/><rect class="pop" style="animation-delay:0.75s" x="163" y="4" width="4" height="7" fill="#36b5f4"/><rect class="pop" style="animation-delay:0.8s" x="168" y="4" width="4" height="7" fill="#28c1f7"/><rect class="pop" style="animation-delay:0.85s" x="173" y="4" width="4" height="7" fill="#1bcdfa"/><rect x="178" y="4" width="4" height="7" fill="#241347"/><rect x="183" y="4" width="4" height="7" fill="#241347"/><g fill="#ffffff"><rect x="4" y="15" width="5" height="1"/><rect x="10" y="15" width="4" height="1"/><rect x="17" y="15" width="3" height="1"/><rect x="22" y="15" width="1" height="1"/><rect x="26" y="15" width="1" height="1"/><rect x="28" y="15" width="5" height="1"/><rect x="34" y="15" width="5" height="1"/><rect x="40" y="15" width="1" height="1"/><rect x="44" y="15" width="1" height="1"/><rect x="46" y="15" width="4" height="1"/><rect x="4" y="16" width="1" height="1"/><rect x="10" y="16" width="1" height="1"/><rect x="14" y="16" width="1" height="1"/><rect x="16" y="16" width="1" height="1"/><rect x="20" y="16" width="1" height="1"/><rect x="22" y="16" width="2" height="1"/><rect x="26" y="16" width="1" height="1"/><rect x="30" y="16" width="1" height="1"/><rect x="34" y="16" width="1" height="1"/><rect x="40" y="16" width="2" height="1"/><rect x="44" y="16" width="1" height="1"/><rect x="46" y="16" width="1" height="1"/><rect x="50" y="16" width="1" height="1"/><rect x="4" y="17" width="1" height="1"/><rect x="10" y="17" width="1" height="1"/><rect x="14" y="17" width="1" height="1"/><rect x="16" y="17" width="1" height="1"/><rect x="20" y="17" width="1" height="1"/><rect x="22" y="17" width="1" height="1"/><rect x="24" y="17" width="1" height="1"/><rect x="26" y="17" width="1" height="1"/><rect x="30" y="17" width="1" height="1"/><rect x="34" y="17" width="1" height="1"/><rect x="40" y="17" width="1" height="1"/><rect x="42" y="17" width="1" height="1"/><rect x="44" y="17" width="1" height="1"/><rect x="46" y="17" width="1" height="1"/><rect x="50" y="17" width="1" height="1"/><rect x="4" y="18" width="4" height="1"/><rect x="10" y="18" width="4" height="1"/><rect x="16" y="18" width="1" height="1"/><rect x="20" y="18" width="1" height="1"/><rect x="22" y="18" width="1" height="1"/><rect x="25" y="18" width="2" height="1"/><rect x="30" y="18" width="1" height="1"/><rect x="34" y="18" width="4" height="1"/><rect x="40" y="18" width="1" height="1"/><rect x="43" y="18" width="2" height="1"/><rect x="46" y="18" width="1" height="1"/><rect x="50" y="18" width="1" height="1"/><rect x="4" y="19" width="1" height="1"/><rect x="10" y="19" width="1" height="1"/><rect x="12" y="19" width="1" height="1"/><rect x="16" y="19" width="1" height="1"/><rect x="20" y="19" width="1" height="1"/><rect x="22" y="19" width="1" height="1"/><rect x="26" y="19" width="1" height="1"/><rect x="30" y="19" width="1" height="1"/><rect x="34" y="19" width="1" height="1"/><rect x="40" y="19" width="1" height="1"/><rect x="44" y="19" width="1" height="1"/><rect x="46" y="19" width="1" height="1"/><rect x="50" y="19" width="1" height="1"/><rect x="4" y="20" width="1" height="1"/><rect x="10" y="20" width="1" height="1"/><rect x="13" y="20" width="1" height="1"/><rect x="16" y="20" width="1" height="1"/><rect x="20" y="20" width="1" height="1"/><rect x="22" y="20" width="1" height="1"/><rect x="26" y="20" width="1" height="1"/><rect x="30" y="20" width="1" height="1"/><rect x="34" y="20" width="1" height="1"/><rect x="40" y="20" width="1" height="1"/><rect x="44" y="20" width="1" height="1"/><rect x="46" y="20" width="1" height="1"/><rect x="50" y="20" width="1" height="1"/><rect x="4" y="21" width="1" height="1"/><rect x="10" y="21" width="1" height="1"/><rect x="14" y="21" width="1" height="1"/><rect x="17" y="21" width="3" height="1"/><rect x="22" y="21" width="1" height="1"/><rect x="26" y="21" width="1" height="1"/><rect x="30" y="21" width="1" height="1"/><rect x="34" y="21" width="5" height="1"/><rect x="40" y="21" width="1" height="1"/><rect x="44" y="21" width="1" height="1"/><rect x="46" y="21" width="4" height="1"/></g><rect class="pop" style="animation-delay:0.15s" x="88" y="15" width="4" height="7" fill="#ff00cc"/><rect class="pop" style="animation-delay:0.2s" x="93" y="15" width="4" height="7" fill="#f20ccf"/><rect class="pop" style="animation-delay:0.25s" x="98" y="15" width="4" height="7" fill="#e418d1"/><rect class="pop" style="animation-delay:0.3s" x="103" y="15" width="4" height="7" fill="#d724d4"/><rect class="pop" style="animation-delay:0.35s" x="108" y="15" width="4" height="7" fill="#c930d7"/><rect class="pop" style="animation-delay:0.4s" x="113" y="15" width="4" height="7" fill="#bc3cd9"/><rect class="pop" style="animation-delay:0.45s" x="118" y="15" width="4" height="7" fill="#ae48dc"/><rect class="pop" style="animation-delay:0.5s" x="123" y="15" width="4" height="7" fill="#a154df"/><rect class="pop" style="animation-delay:0.55s" x="128" y="15" width="4" height="7" fill="#9460e1"/><rect class="pop" style="animation-delay:0.6s" x="133" y="15" width="4" height="7" fill="#866ce4"/><rect class="pop" style="animation-delay:0.65s" x="138" y="15" width="4" height="7" fill="#7979e7"/><rect class="pop" style="animation-delay:0.7s" x="143" y="15" width="4" height="7" fill="#6b85ea"/><rect class="pop" style="animation-delay:0.75s" x="148" y="15" width="4" height="7" fill="#5e91ec"/><rect class="pop" style="animation-delay:0.8s" x="153" y="15" width="4" height="7" fill="#519def"/><rect class="pop" style="animation-delay:0.85s" x="158" y="15" width="4" height="7" fill="#43a9f2"/><rect class="pop" style="animation-delay:0.9s" x="163" y="15" width="4" height="7" fill="#36b5f4"/><rect x="168" y="15" width="4" height="7" fill="#241347"/><rect x="173" y="15" width="4" height="7" fill="#241347"/><rect x="178" y="15" width="4" height="7" fill="#241347"/><rect x="183" y="15" width="4" height="7" fill="#241347"/><g fill="#ffffff"><rect x="4" y="26" width="4" height="1"/><rect x="11" y="26" width="3" height="1"/><rect x="16" y="26" width="5" height="1"/><rect x="23" y="26" width="3" height="1"/><rect x="28" y="26" width="4" height="1"/><rect x="35" y="26" width="3" height="1"/><rect x="41" y="26" width="4" height="1"/><rect x="46" y="26" width="5" height="1"/><rect x="4" y="27" width="1" height="1"/><rect x="8" y="27" width="1" height="1"/><rect x="10" y="27" width="1" height="1"/><rect x="14" y="27" width="1" height="1"/><rect x="18" y="27" width="1" height="1"/><rect x="22" y="27" width="1" height="1"/><rect x="26" y="27" width="1" height="1"/><rect x="28" y="27" width="1" height="1"/><rect x="32" y="27" width="1" height="1"/><rect x="34" y="27" width="1" height="1"/><rect x="38" y="27" width="1" height="1"/><rect x="40" y="27" width="1" height="1"/><rect x="46" y="27" width="1" height="1"/><rect x="4" y="28" width="1" height="1"/><rect x="8" y="28" width="1" height="1"/><rect x="10" y="28" width="1" height="1"/><rect x="14" y="28" width="1" height="1"/><rect x="18" y="28" width="1" height="1"/><rect x="22" y="28" width="1" height="1"/><rect x="26" y="28" width="1" height="1"/><rect x="28" y="28" width="1" height="1"/><rect x="32" y="28" width="1" height="1"/><rect x="34" y="28" width="1" height="1"/><rect x="38" y="28" width="1" height="1"/><rect x="40" y="28" width="1" height="1"/><rect x="46" y="28" width="1" height="1"/><rect x="4" y="29" width="1" height="1"/><rect x="8" y="29" width="1" height="1"/><rect x="10" y="29" width="5" height="1"/><rect x="18" y="29" width="1" height="1"/><rect x="22" y="29" width="5" height="1"/><rect x="28" y="29" width="4" height="1"/><rect x="34" y="29" width="5" height="1"/><rect x="41" y="29" width="3" height="1"/><rect x="46" y="29" width="4" height="1"/><rect x="4" y="30" width="1" height="1"/><rect x="8" y="30" width="1" height="1"/><rect x="10" y="30" width="1" height="1"/><rect x="14" y="30" width="1" height="1"/><rect x="18" y="30" width="1" height="1"/><rect x="22" y="30" width="1" height="1"/><rect x="26" y="30" width="1" height="1"/><rect x="28" y="30" width="1" height="1"/><rect x="32" y="30" width="1" height="1"/><rect x="34" y="30" width="1" height="1"/><rect x="38" y="30" width="1" height="1"/><rect x="44" y="30" width="1" height="1"/><rect x="46" y="30" width="1" height="1"/><rect x="4" y="31" width="1" height="1"/><rect x="8" y="31" width="1" height="1"/><rect x="10" y="31" width="1" height="1"/><rect x="14" y="31" width="1" height="1"/><rect x="18" y="31" width="1" height="1"/><rect x="22" y="31" width="1" height="1"/><rect x="26" y="31" width="1" height="1"/><rect x="28" y="31" width="1" height="1"/><rect x="32" y="31" width="1" height="1"/><rect x="34" y="31" width="1" height="1"/><rect x="38" y="31" width="1" height="1"/><rect x="44" y="31" width="1" height="1"/><rect x="46" y="31" width="1" height="1"/><rect x="4" y="32" width="4" height="1"/><rect x="10" y="32" width="1" height="1"/><rect x="14" y="32" width="1" height="1"/><rect x="18" y="32" width="1" height="1"/><rect x="22" y="32" width="1" height="1"/><rect x="26" y="32" width="1" height="1"/><rect x="28" y="32" width="4" height="1"/><rect x="34" y="32" width="1" height="1"/><rect x="38" y="32" width="1" height="1"/><rect x="40" y="32" width="4" height="1"/><rect x="46" y="32" width="5" height="1"/></g><rect class="pop" style="animation-delay:0.3s" x="88" y="26" width="4" height="7" fill="#ff00cc"/><rect class="pop" style="animation-delay:0.35s" x="93" y="26" width="4" height="7" fill="#f20ccf"/><rect class="pop" style="animation-delay:0.4s" x="98" y="26" width="4" height="7" fill="#e418d1"/><rect class="pop" style="animation-delay:0.45s" x="103" y="26" width="4" height="7" fill="#d724d4"/><rect class="pop" style="animation-delay:0.5s" x="108" y="26" width="4" height="7" fill="#c930d7"/><rect class="pop" style="animation-delay:0.55s" x="113" y="26" width="4" height="7" fill="#bc3cd9"/><rect class="pop" style="animation-delay:0.6s" x="118" y="26" width="4" height="7" fill="#ae48dc"/><rect class="pop" style="animation-delay:0.65s" x="123" y="26" width="4" height="7" fill="#a154df"/><rect class="pop" style="animation-delay:0.7s" x="128" y="26" width="4" height="7" fill="#9460e1"/><rect class="pop" style="animation-delay:0.75s" x="133" y="26" width="4" height="7" fill="#866ce4"/><rect class="pop" style="animation-delay:0.8s" x="138" y="26" width="4" height="7" fill="#7979e7"/><rect class="pop" style="animation-delay:0.85s" x="143" y="26" width="4" height="7" fill="#6b85ea"/><rect class="pop" style="animation-delay:0.9s" x="148" y="26" width="4" height="7" fill="#5e91ec"/><rect class="pop" style="animation-delay:0.95s" x="153" y="26" width="4" height="7" fill="#519def"/><rect class="pop" style="animation-delay:1.0s" x="158" y="26" width="4" height="7" fill="#43a9f2"/><rect class="pop" style="animation-delay:1.05s" x="163" y="26" width="4" height="7" fill="#36b5f4"/><rect x="168" y="26" width="4" height="7" fill="#241347"/><rect x="173" y="26" width="4" height="7" fill="#241347"/><rect x="178" y="26" width="4" height="7" fill="#241347"/><rect x="183" y="26" width="4" height="7" fill="#241347"/><g fill="#ffffff"><rect x="5" y="37" width="3" height="1"/><rect x="10" y="37" width="4" height="1"/><rect x="17" y="37" width="3" height="1"/><rect x="22" y="37" width="1" height="1"/><rect x="26" y="37" width="1" height="1"/><rect x="29" y="37" width="3" height="1"/><rect x="34" y="37" width="5" height="1"/><rect x="40" y="37" width="5" height="1"/><rect x="47" y="37" width="3" height="1"/><rect x="52" y="37" width="5" height="1"/><rect x="58" y="37" width="1" height="1"/><rect x="62" y="37" width="1" height="1"/><rect x="64" y="37" width="4" height="1"/><rect x="70" y="37" width="5" height="1"/><rect x="4" y="38" width="1" height="1"/><rect x="8" y="38" width="1" height="1"/><rect x="10" y="38" width="1" height="1"/><rect x="14" y="38" width="1" height="1"/><rect x="16" y="38" width="1" height="1"/><rect x="20" y="38" width="1" height="1"/><rect x="22" y="38" width="1" height="1"/><rect x="26" y="38" width="1" height="1"/><rect x="30" y="38" width="1" height="1"/><rect x="36" y="38" width="1" height="1"/><rect x="40" y="38" width="1" height="1"/><rect x="46" y="38" width="1" height="1"/><rect x="50" y="38" width="1" height="1"/><rect x="54" y="38" width="1" height="1"/><rect x="58" y="38" width="1" height="1"/><rect x="62" y="38" width="1" height="1"/><rect x="64" y="38" width="1" height="1"/><rect x="68" y="38" width="1" height="1"/><rect x="70" y="38" width="1" height="1"/><rect x="4" y="39" width="1" height="1"/><rect x="8" y="39" width="1" height="1"/><rect x="10" y="39" width="1" height="1"/><rect x="14" y="39" width="1" height="1"/><rect x="16" y="39" width="1" height="1"/><rect x="22" y="39" width="1" height="1"/><rect x="26" y="39" width="1" height="1"/><rect x="30" y="39" width="1" height="1"/><rect x="36" y="39" width="1" height="1"/><rect x="40" y="39" width="1" height="1"/><rect x="46" y="39" width="1" height="1"/><rect x="54" y="39" width="1" height="1"/><rect x="58" y="39" width="1" height="1"/><rect x="62" y="39" width="1" height="1"/><rect x="64" y="39" width="1" height="1"/><rect x="68" y="39" width="1" height="1"/><rect x="70" y="39" width="1" height="1"/><rect x="4" y="40" width="5" height="1"/><rect x="10" y="40" width="4" height="1"/><rect x="16" y="40" width="1" height="1"/><rect x="22" y="40" width="5" height="1"/><rect x="30" y="40" width="1" height="1"/><rect x="36" y="40" width="1" height="1"/><rect x="40" y="40" width="4" height="1"/><rect x="46" y="40" width="1" height="1"/><rect x="54" y="40" width="1" height="1"/><rect x="58" y="40" width="1" height="1"/><rect x="62" y="40" width="1" height="1"/><rect x="64" y="40" width="4" height="1"/><rect x="70" y="40" width="4" height="1"/><rect x="4" y="41" width="1" height="1"/><rect x="8" y="41" width="1" height="1"/><rect x="10" y="41" width="1" height="1"/><rect x="12" y="41" width="1" height="1"/><rect x="16" y="41" width="1" height="1"/><rect x="22" y="41" width="1" height="1"/><rect x="26" y="41" width="1" height="1"/><rect x="30" y="41" width="1" height="1"/><rect x="36" y="41" width="1" height="1"/><rect x="40" y="41" width="1" height="1"/><rect x="46" y="41" width="1" height="1"/><rect x="54" y="41" width="1" height="1"/><rect x="58" y="41" width="1" height="1"/><rect x="62" y="41" width="1" height="1"/><rect x="64" y="41" width="1" height="1"/><rect x="66" y="41" width="1" height="1"/><rect x="70" y="41" width="1" height="1"/><rect x="4" y="42" width="1" height="1"/><rect x="8" y="42" width="1" height="1"/><rect x="10" y="42" width="1" height="1"/><rect x="13" y="42" width="1" height="1"/><rect x="16" y="42" width="1" height="1"/><rect x="20" y="42" width="1" height="1"/><rect x="22" y="42" width="1" height="1"/><rect x="26" y="42" width="1" height="1"/><rect x="30" y="42" width="1" height="1"/><rect x="36" y="42" width="1" height="1"/><rect x="40" y="42" width="1" height="1"/><rect x="46" y="42" width="1" height="1"/><rect x="50" y="42" width="1" height="1"/><rect x="54" y="42" width="1" height="1"/><rect x="58" y="42" width="1" height="1"/><rect x="62" y="42" width="1" height="1"/><rect x="64" y="42" width="1" height="1"/><rect x="67" y="42" width="1" height="1"/><rect x="70" y="42" width="1" height="1"/><rect x="4" y="43" width="1" height="1"/><rect x="8" y="43" width="1" height="1"/><rect x="10" y="43" width="1" height="1"/><rect x="14" y="43" width="1" height="1"/><rect x="17" y="43" width="3" height="1"/><rect x="22" y="43" width="1" height="1"/><rect x="26" y="43" width="1" height="1"/><rect x="29" y="43" width="3" height="1"/><rect x="36" y="43" width="1" height="1"/><rect x="40" y="43" width="5" height="1"/><rect x="47" y="43" width="3" height="1"/><rect x="54" y="43" width="1" height="1"/><rect x="59" y="43" width="3" height="1"/><rect x="64" y="43" width="1" height="1"/><rect x="68" y="43" width="1" height="1"/><rect x="70" y="43" width="5" height="1"/></g><rect class="pop" style="animation-delay:0.45s" x="88" y="37" width="4" height="7" fill="#ff00cc"/><rect class="pop" style="animation-delay:0.5s" x="93" y="37" width="4" height="7" fill="#f20ccf"/><rect class="pop" style="animation-delay:0.55s" x="98" y="37" width="4" height="7" fill="#e418d1"/><rect class="pop" style="animation-delay:0.6s" x="103" y="37" width="4" height="7" fill="#d724d4"/><rect class="pop" style="animation-delay:0.65s" x="108" y="37" width="4" height="7" fill="#c930d7"/><rect class="pop" style="animation-delay:0.7s" x="113" y="37" width="4" height="7" fill="#bc3cd9"/><rect class="pop" style="animation-delay:0.75s" x="118" y="37" width="4" height="7" fill="#ae48dc"/><rect class="pop" style="animation-delay:0.8s" x="123" y="37" width="4" height="7" fill="#a154df"/><rect class="pop" style="animation-delay:0.85s" x="128" y="37" width="4" height="7" fill="#9460e1"/><rect class="pop" style="animation-delay:0.9s" x="133" y="37" width="4" height="7" fill="#866ce4"/><rect class="pop" style="animation-delay:0.95s" x="138" y="37" width="4" height="7" fill="#7979e7"/><rect class="pop" style="animation-delay:1.0s" x="143" y="37" width="4" height="7" fill="#6b85ea"/><rect class="pop" style="animation-delay:1.05s" x="148" y="37" width="4" height="7" fill="#5e91ec"/><rect class="pop" style="animation-delay:1.1s" x="153" y="37" width="4" height="7" fill="#519def"/><rect class="pop" style="animation-delay:1.15s" x="158" y="37" width="4" height="7" fill="#43a9f2"/><rect class="pop" style="animation-delay:1.2s" x="163" y="37" width="4" height="7" fill="#36b5f4"/><rect x="168" y="37" width="4" height="7" fill="#241347"/><rect x="173" y="37" width="4" height="7" fill="#241347"/><rect x="178" y="37" width="4" height="7" fill="#241347"/><rect x="183" y="37" width="4" height="7" fill="#241347"/><g fill="#ffffff"><rect x="5" y="48" width="3" height="1"/><rect x="10" y="48" width="1" height="1"/><rect x="16" y="48" width="5" height="1"/><rect x="23" y="48" width="3" height="1"/><rect x="28" y="48" width="1" height="1"/><rect x="32" y="48" width="1" height="1"/><rect x="41" y="48" width="3" height="1"/><rect x="47" y="48" width="3" height="1"/><rect x="52" y="48" width="4" height="1"/><rect x="58" y="48" width="5" height="1"/><rect x="4" y="49" width="1" height="1"/><rect x="8" y="49" width="1" height="1"/><rect x="10" y="49" width="1" height="1"/><rect x="16" y="49" width="1" height="1"/><rect x="22" y="49" width="1" height="1"/><rect x="26" y="49" width="1" height="1"/><rect x="28" y="49" width="2" height="1"/><rect x="32" y="49" width="1" height="1"/><rect x="40" y="49" width="1" height="1"/><rect x="44" y="49" width="1" height="1"/><rect x="46" y="49" width="1" height="1"/><rect x="50" y="49" width="1" height="1"/><rect x="52" y="49" width="1" height="1"/><rect x="56" y="49" width="1" height="1"/><rect x="58" y="49" width="1" height="1"/><rect x="4" y="50" width="1" height="1"/><rect x="10" y="50" width="1" height="1"/><rect x="16" y="50" width="1" height="1"/><rect x="22" y="50" width="1" height="1"/><rect x="26" y="50" width="1" height="1"/><rect x="28" y="50" width="1" height="1"/><rect x="30" y="50" width="1" height="1"/><rect x="32" y="50" width="1" height="1"/><rect x="40" y="50" width="1" height="1"/><rect x="46" y="50" width="1" height="1"/><rect x="50" y="50" width="1" height="1"/><rect x="52" y="50" width="1" height="1"/><rect x="56" y="50" width="1" height="1"/><rect x="58" y="50" width="1" height="1"/><rect x="4" y="51" width="1" height="1"/><rect x="10" y="51" width="1" height="1"/><rect x="16" y="51" width="4" height="1"/><rect x="22" y="51" width="5" height="1"/><rect x="28" y="51" width="1" height="1"/><rect x="31" y="51" width="2" height="1"/><rect x="40" y="51" width="1" height="1"/><rect x="46" y="51" width="1" height="1"/><rect x="50" y="51" width="1" height="1"/><rect x="52" y="51" width="1" height="1"/><rect x="56" y="51" width="1" height="1"/><rect x="58" y="51" width="4" height="1"/><rect x="4" y="52" width="1" height="1"/><rect x="10" y="52" width="1" height="1"/><rect x="16" y="52" width="1" height="1"/><rect x="22" y="52" width="1" height="1"/><rect x="26" y="52" width="1" height="1"/><rect x="28" y="52" width="1" height="1"/><rect x="32" y="52" width="1" height="1"/><rect x="40" y="52" width="1" height="1"/><rect x="46" y="52" width="1" height="1"/><rect x="50" y="52" width="1" height="1"/><rect x="52" y="52" width="1" height="1"/><rect x="56" y="52" width="1" height="1"/><rect x="58" y="52" width="1" height="1"/><rect x="4" y="53" width="1" height="1"/><rect x="8" y="53" width="1" height="1"/><rect x="10" y="53" width="1" height="1"/><rect x="16" y="53" width="1" height="1"/><rect x="22" y="53" width="1" height="1"/><rect x="26" y="53" width="1" height="1"/><rect x="28" y="53" width="1" height="1"/><rect x="32" y="53" width="1" height="1"/><rect x="40" y="53" width="1" height="1"/><rect x="44" y="53" width="1" height="1"/><rect x="46" y="53" width="1" height="1"/><rect x="50" y="53" width="1" height="1"/><rect x="52" y="53" width="1" height="1"/><rect x="56" y="53" width="1" height="1"/><rect x="58" y="53" width="1" height="1"/><rect x="5" y="54" width="3" height="1"/><rect x="10" y="54" width="5" height="1"/><rect x="16" y="54" width="5" height="1"/><rect x="22" y="54" width="1" height="1"/><rect x="26" y="54" width="1" height="1"/><rect x="28" y="54" width="1" height="1"/><rect x="32" y="54" width="1" height="1"/><rect x="41" y="54" width="3" height="1"/><rect x="47" y="54" width="3" height="1"/><rect x="52" y="54" width="4" height="1"/><rect x="58" y="54" width="5" height="1"/></g><rect class="pop" style="animation-delay:0.6s" x="88" y="48" width="4" height="7" fill="#ff00cc"/><rect class="pop" style="animation-delay:0.65s" x="93" y="48" width="4" height="7" fill="#f20ccf"/><rect class="pop" style="animation-delay:0.7s" x="98" y="48" width="4" height="7" fill="#e418d1"/><rect class="pop" style="animation-delay:0.75s" x="103" y="48" width="4" height="7" fill="#d724d4"/><rect class="pop" style="animation-delay:0.8s" x="108" y="48" width="4" height="7" fill="#c930d7"/><rect class="pop" style="animation-delay:0.85s" x="113" y="48" width="4" height="7" fill="#bc3cd9"/><rect class="pop" style="animation-delay:0.9s" x="118" y="48" width="4" height="7" fill="#ae48dc"/><rect class="pop" style="animation-delay:0.95s" x="123" y="48" width="4" height="7" fill="#a154df"/><rect class="pop" style="animation-delay:1.0s" x="128" y="48" width="4" height="7" fill="#9460e1"/><rect class="pop" style="animation-delay:1.05s" x="133" y="48" width="4" height="7" fill="#866ce4"/><rect class="pop" style="animation-delay:1.1s" x="138" y="48" width="4" height="7" fill="#7979e7"/><rect class="pop" style="animation-delay:1.15s" x="143" y="48" width="4" height="7" fill="#6b85ea"/><rect class="pop" style="animation-delay:1.2s" x="148" y="48" width="4" height="7" fill="#5e91ec"/><rect class="pop" style="animation-delay:1.25s" x="153" y="48" width="4" height="7" fill="#519def"/><rect class="pop" style="animation-delay:1.3s" x="158" y="48" width="4" height="7" fill="#43a9f2"/><rect class="pop" style="animation-delay:1.35s" x="163" y="48" width="4" height="7" fill="#36b5f4"/><rect class="pop" style="animation-delay:1.4s" x="168" y="48" width="4" height="7" fill="#28c1f7"/><rect class="pop" style="animation-delay:1.45s" x="173" y="48" width="4" height="7" fill="#1bcdfa"/><rect x="178" y="48" width="4" height="7" fill="#241347"/><rect x="183" y="48" width="4" height="7" fill="#241347"/><g fill="#ffffff"><rect x="4" y="59" width="4" height="1"/><rect x="10" y="59" width="5" height="1"/><rect x="16" y="59" width="4" height="1"/><rect x="22" y="59" width="5" height="1"/><rect x="29" y="59" width="3" height="1"/><rect x="34" y="59" width="4" height="1"/><rect x="40" y="59" width="1" height="1"/><rect x="44" y="59" width="1" height="1"/><rect x="47" y="59" width="3" height="1"/><rect x="52" y="59" width="1" height="1"/><rect x="56" y="59" width="1" height="1"/><rect x="59" y="59" width="3" height="1"/><rect x="64" y="59" width="5" height="1"/><rect x="4" y="60" width="1" height="1"/><rect x="8" y="60" width="1" height="1"/><rect x="10" y="60" width="1" height="1"/><rect x="16" y="60" width="1" height="1"/><rect x="20" y="60" width="1" height="1"/><rect x="22" y="60" width="1" height="1"/><rect x="28" y="60" width="1" height="1"/><rect x="32" y="60" width="1" height="1"/><rect x="34" y="60" width="1" height="1"/><rect x="38" y="60" width="1" height="1"/><rect x="40" y="60" width="2" height="1"/><rect x="43" y="60" width="2" height="1"/><rect x="46" y="60" width="1" height="1"/><rect x="50" y="60" width="1" height="1"/><rect x="52" y="60" width="2" height="1"/><rect x="56" y="60" width="1" height="1"/><rect x="58" y="60" width="1" height="1"/><rect x="62" y="60" width="1" height="1"/><rect x="64" y="60" width="1" height="1"/><rect x="4" y="61" width="1" height="1"/><rect x="8" y="61" width="1" height="1"/><rect x="10" y="61" width="1" height="1"/><rect x="16" y="61" width="1" height="1"/><rect x="20" y="61" width="1" height="1"/><rect x="22" y="61" width="1" height="1"/><rect x="28" y="61" width="1" height="1"/><rect x="32" y="61" width="1" height="1"/><rect x="34" y="61" width="1" height="1"/><rect x="38" y="61" width="1" height="1"/><rect x="40" y="61" width="1" height="1"/><rect x="42" y="61" width="1" height="1"/><rect x="44" y="61" width="1" height="1"/><rect x="46" y="61" width="1" height="1"/><rect x="50" y="61" width="1" height="1"/><rect x="52" y="61" width="1" height="1"/><rect x="54" y="61" width="1" height="1"/><rect x="56" y="61" width="1" height="1"/><rect x="58" y="61" width="1" height="1"/><rect x="64" y="61" width="1" height="1"/><rect x="4" y="62" width="4" height="1"/><rect x="10" y="62" width="4" height="1"/><rect x="16" y="62" width="4" height="1"/><rect x="22" y="62" width="4" height="1"/><rect x="28" y="62" width="1" height="1"/><rect x="32" y="62" width="1" height="1"/><rect x="34" y="62" width="4" height="1"/><rect x="40" y="62" width="1" height="1"/><rect x="42" y="62" width="1" height="1"/><rect x="44" y="62" width="1" height="1"/><rect x="46" y="62" width="5" height="1"/><rect x="52" y="62" width="1" height="1"/><rect x="55" y="62" width="2" height="1"/><rect x="58" y="62" width="1" height="1"/><rect x="64" y="62" width="4" height="1"/><rect x="4" y="63" width="1" height="1"/><rect x="10" y="63" width="1" height="1"/><rect x="16" y="63" width="1" height="1"/><rect x="18" y="63" width="1" height="1"/><rect x="22" y="63" width="1" height="1"/><rect x="28" y="63" width="1" height="1"/><rect x="32" y="63" width="1" height="1"/><rect x="34" y="63" width="1" height="1"/><rect x="36" y="63" width="1" height="1"/><rect x="40" y="63" width="1" height="1"/><rect x="44" y="63" width="1" height="1"/><rect x="46" y="63" width="1" height="1"/><rect x="50" y="63" width="1" height="1"/><rect x="52" y="63" width="1" height="1"/><rect x="56" y="63" width="1" height="1"/><rect x="58" y="63" width="1" height="1"/><rect x="64" y="63" width="1" height="1"/><rect x="4" y="64" width="1" height="1"/><rect x="10" y="64" width="1" height="1"/><rect x="16" y="64" width="1" height="1"/><rect x="19" y="64" width="1" height="1"/><rect x="22" y="64" width="1" height="1"/><rect x="28" y="64" width="1" height="1"/><rect x="32" y="64" width="1" height="1"/><rect x="34" y="64" width="1" height="1"/><rect x="37" y="64" width="1" height="1"/><rect x="40" y="64" width="1" height="1"/><rect x="44" y="64" width="1" height="1"/><rect x="46" y="64" width="1" height="1"/><rect x="50" y="64" width="1" height="1"/><rect x="52" y="64" width="1" height="1"/><rect x="56" y="64" width="1" height="1"/><rect x="58" y="64" width="1" height="1"/><rect x="62" y="64" width="1" height="1"/><rect x="64" y="64" width="1" height="1"/><rect x="4" y="65" width="1" height="1"/><rect x="10" y="65" width="5" height="1"/><rect x="16" y="65" width="1" height="1"/><rect x="20" y="65" width="1" height="1"/><rect x="22" y="65" width="1" height="1"/><rect x="29" y="65" width="3" height="1"/><rect x="34" y="65" width="1" height="1"/><rect x="38" y="65" width="1" height="1"/><rect x="40" y="65" width="1" height="1"/><rect x="44" y="65" width="1" height="1"/><rect x="46" y="65" width="1" height="1"/><rect x="50" y="65" width="1" height="1"/><rect x="52" y="65" width="1" height="1"/><rect x="56" y="65" width="1" height="1"/><rect x="59" y="65" width="3" height="1"/><rect x="64" y="65" width="5" height="1"/></g><rect class="pop" style="animation-delay:0.75s" x="88" y="59" width="4" height="7" fill="#ff00cc"/><rect class="pop" style="animation-delay:0.8s" x="93" y="59" width="4" height="7" fill="#f20ccf"/><rect class="pop" style="animation-delay:0.85s" x="98" y="59" width="4" height="7" fill="#e418d1"/><rect class="pop" style="animation-delay:0.9s" x="103" y="59" width="4" height="7" fill="#d724d4"/><rect class="pop" style="animation-delay:0.95s" x="108" y="59" width="4" height="7" fill="#c930d7"/><rect class="pop" style="animation-delay:1.0s" x="113" y="59" width="4" height="7" fill="#bc3cd9"/><rect class="pop" style="animation-delay:1.05s" x="118" y="59" width="4" height="7" fill="#ae48dc"/><rect class="pop" style="animation-delay:1.1s" x="123" y="59" width="4" height="7" fill="#a154df"/><rect class="pop" style="animation-delay:1.15s" x="128" y="59" width="4" height="7" fill="#9460e1"/><rect class="pop" style="animation-delay:1.2s" x="133" y="59" width="4" height="7" fill="#866ce4"/><rect class="pop" style="animation-delay:1.25s" x="138" y="59" width="4" height="7" fill="#7979e7"/><rect class="pop" style="animation-delay:1.3s" x="143" y="59" width="4" height="7" fill="#6b85ea"/><rect class="pop" style="animation-delay:1.35s" x="148" y="59" width="4" height="7" fill="#5e91ec"/><rect class="pop" style="animation-delay:1.4s" x="153" y="59" width="4" height="7" fill="#519def"/><rect class="pop" style="animation-delay:1.45s" x="158" y="59" width="4" height="7" fill="#43a9f2"/><rect x="163" y="59" width="4" height="7" fill="#241347"/><rect x="168" y="59" width="4" height="7" fill="#241347"/><rect x="173" y="59" width="4" height="7" fill="#241347"/><rect x="178" y="59" width="4" height="7" fill="#241347"/><rect x="183" y="59" width="4" height="7" fill="#241347"/></svg>