<svg xmlns="http://www.w3.org/2000/svg" viewBox="0 0 220 12" width="660" height="36" shape-rendering="crispEdges"><style>
.tw{animation:tw 3s steps(2,end) infinite}
@keyframes tw{0%,100%{opacity:1}50%{opacity:.15}}
.bob{animation:bob 1.2s steps(2,end) infinite}
@keyframes bob{0%,100%{transform:translateY(0)}50%{transform:translateY(-2px)}}
.blink{animation:blink 1s steps(1,end) infinite}
@keyframes blink{0%,49%{opacity:1}50%,100%{opacity:0}}
.pop{animation:pop .01s both}
@keyframes pop{from{opacity:0}to{opacity:1}}
</style><rect x="0" y="0" width="220" height="12" fill="#0d0221"/><g class="bob" style="animation-delay:0s"><rect x="2" y="1" width="2" height="1" fill="#ff3b6b"/><rect x="7" y="1" width="2" height="1" fill="#ff3b6b"/><rect x="1" y="2" width="1" height="1" fill="#ff3b6b"/><rect x="2" y="2" width="1" height="1" fill="#ffd1dc"/><rect x="3" y="2" width="2" height="1" fill="#ff3b6b"/><rect x="6" y="2" width="4" height="1" fill="#ff3b6b"/><rect x="1" y="3" width="9" height="1" fill="#ff3b6b"/><rect x="1" y="4" width="9" height="1" fill="#ff3b6b"/><rect x="2" y="5" width="7" height="1" fill="#ff3b6b"/><rect x="3" y="6" width="5" height="1" fill="#ff3b6b"/><rect x="4" y="7" width="3" height="1" fill="#ff3b6b"/><rect x="5" y="8" width="1" height="1" fill="#ff3b6b"/></g><g fill="#ff00cc"><rect x="13" y="3" width="4" height="1"/><rect x="19" y="3" width="1" height="1"/><rect x="26" y="3" width="3" height="1"/><rect x="31" y="3" width="1" height="1"/><rect x="35" y="3" width="1" height="1"/><rect x="37" y="3" width="5" height="1"/><rect x="43" y="3" width="4" height="1"/><rect x="56" y="3" width="4" height="1"/><rect x="61" y="3" width="5" height="1"/><rect x="67" y="3" width="1" height="1"/><rect x="73" y="3" width="5" height="1"/><rect x="80" y="3" width="3" height="1"/><rect x="85" y="3" width="5" height="1"/><rect x="13" y="4" width="1" height="1"/><rect x="17" y="4" width="1" height="1"/><rect x="19" y="4" width="1" height="1"/><rect x="25" y="4" width="1" height="1"/><rect x="29" y="4" width="1" height="1"/><rect x="31" y="4" width="1" height="1"/><rect x="35" y="4" width="1" height="1"/><rect x="37" y="4" width="1" height="1"/><rect x="43" y="4" width="1" height="1"/><rect x="47" y="4" width="1" height="1"/><rect x="55" y="4" width="1" height="1"/><rect x="61" y="4" width="1" height="1"/><rect x="67" y="4" width="1" height="1"/><rect x="73" y="4" width="1" height="1"/><rect x="79" y="4" width="1" height="1"/><rect x="83" y="4" width="1" height="1"/><rect x="87" y="4" width="1" height="1"/><rect x="13" y="5" width="1" height="1"/><rect x="17" y="5" width="1" height="1"/><rect x="19" y="5" width="1" height="1"/><rect x="25" y="5" width="1" height="1"/><rect x="29" y="5" width="1" height="1"/><rect x="32" y="5" width="1" height="1"/><rect x="34" y="5" width="1" height="1"/><rect x="37" y="5" width="1" height="1"/><rect x="43" y="5" width="1" height="1"/><rect x="47" y="5" width="1" height="1"/><rect x="55" y="5" width="1" height="1"/><rect x="61" y="5" width="1" height="1"/><rect x="67" y="5" width="1" height="1"/><rect x="73" y="5" width="1" height="1"/><rect x="79" y="5" width="1" height="1"/><rect x="87" y="5" width="1" height="1"/><rect x="13" y="6" width="4" height="1"/><rect x="19" y="6" width="1" height="1"/><rect x="25" y="6" width="5" height="1"/><rect x="33" y="6" width="1" height="1"/><rect x="37" y="6" width="4" height="1"/><rect x="43" y="6" width="4" height="1"/><rect x="56" y="6" width="3" height="1"/><rect x="61" y="6" width="4" height="1"/><rect x="67" y="6" width="1" height="1"/><rect x="73" y="6" width="4" height="1"/><rect x="79" y="6" width="1" height="1"/><rect x="87" y="6" width="1" height="1"/><rect x="13" y="7" width="1" height="1"/><rect x="19" y="7" width="1" height="1"/><rect x="25" y="7" width="1" height="1"/><rect x="29" y="7" width="1" height="1"/><rect x="33" y="7" width="1" height="1"/><rect x="37" y="7" width="1" height="1"/><rect x="43" y="7" width="1" height="1"/><rect x="45" y="7" width="1" height="1"/><rect x="59" y="7" width="1" height="1"/><rect x="61" y="7" width="1" height="1"/><rect x="67" y="7" width="1" height="1"/><rect x="73" y="7" width="1" height="1"/><rect x="79" y="7" width="1" height="1"/><rect x="87" y="7" width="1" height="1"/><rect x="13" y="8" width="1" height="1"/><rect x="19" y="8" width="1" height="1"/><rect x="25" y="8" width="1" height="1"/><rect x="29" y="8" width="1" height="1"/><rect x="33" y="8" width="1" height="1"/><rect x="37" y="8" width="1" height="1"/><rect x="43" y="8" width="1" height="1"/><rect x="46" y="8" width="1" height="1"/><rect x="59" y="8" width="1" height="1"/><rect x="61" y="8" width="1" height="1"/><rect x="67" y="8" width="1" height="1"/><rect x="73" y="8" width="1" height="1"/><rect x="79" y="8" width="1" height="1"/><rect x="83" y="8" width="1" height="1"/><rect x="87" y="8" width="1" height="1"/><rect x="13" y="9" width="1" height="1"/><rect x="19" y="9" width="5" height="1"/><rect x="25" y="9" width="1" height="1"/><rect x="29" y="9" width="1" height="1"/><rect x="33" y="9" width="1" height="1"/><rect x="37" y="9" width="5" height="1"/><rect x="43" y="9" width="1" height="1"/><rect x="47" y="9" width="1" height="1"/><rect x="55" y="9" width="4" height="1"/><rect x="61" y="9" width="5" height="1"/><rect x="67" y="9" width="5" height="1"/><rect x="73" y="9" width="5" height="1"/><rect x="80" y="9" width="3" height="1"/><rect x="87" y="9" width="1" height="1"/></g><g fill="#ffffff"><rect x="12" y="2" width="4" height="1"/><rect x="18" y="2" width="1" height="1"/><rect x="25" y="2" width="3" height="1"/><rect x="30" y="2" width="1" height="1"/><rect x="34" y="2" width="1" height="1"/><rect x="36" y="2" width="5" height="1"/><rect x="42" y="2" width="4" height="1"/><rect x="55" y="2" width="4" height="1"/><rect x="60" y="2" width="5" height="1"/><rect x="66" y="2" width="1" height="1"/><rect x="72" y="2" width="5" height="1"/><rect x="79" y="2" width="3" height="1"/><rect x="84" y="2" width="5" height="1"/><rect x="12" y="3" width="1" height="1"/><rect x="16" y="3" width="1" height="1"/><rect x="18" y="3" width="1" height="1"/><rect x="24" y="3" width="1" height="1"/><rect x="28" y="3" width="1" height="1"/><rect x="30" y="3" width="1" height="1"/><rect x="34" y="3" width="1" height="1"/><rect x="36" y="3" width="1" height="1"/><rect x="42" y="3" width="1" height="1"/><rect x="46" y="3" width="1" height="1"/><rect x="54" y="3" width="1" height="1"/><rect x="60" y="3" width="1" height="1"/><rect x="66" y="3" width="1" height="1"/><rect x="72" y="3" width="1" height="1"/><rect x="78" y="3" width="1" height="1"/><rect x="82" y="3" width="1" height="1"/><rect x="86" y="3" width="1" height="1"/><rect x="12" y="4" width="1" height="1"/><rect x="16" y="4" width="1" height="1"/><rect x="18" y="4" width="1" height="1"/><rect x="24" y="4" width="1" height="1"/><rect x="28" y="4" width="1" height="1"/><rect x="31" y="4" width="1" height="1"/><rect x="33" y="4" width="1" height="1"/><rect x="36" y="4" width="1" height="1"/><rect x="42" y="4" width="1" height="1"/><rect x="46" y="4" width="1" height="1"/><rect x="54" y="4" width="1" height="1"/><rect x="60" y="4" width="1" height="1"/><rect x="66" y="4" width="1" height="1"/><rect x="72" y="4" width="1" height="1"/><rect x="78" y="4" width="1" height="1"/><rect x="86" y="4" width="1" height="1"/><rect x="12" y="5" width="4" height="1"/><rect x="18" y="5" width="1" height="1"/><rect x="24" y="5" width="5" height="1"/><rect x="32" y="5" width="1" height="1"/><rect x="36" y="5" width="4" height="1"/><rect x="42" y="5" width="4" height="1"/><rect x="55" y="5" width="3" height="1"/><rect x="60" y="5" width="4" height="1"/><rect x="66" y="5" width="1" height="1"/><rect x="72" y="5" width="4" height="1"/><rect x="78" y="5" width="1" height="1"/><rect x="86" y="5" width="1" height="1"/><rect x="12" y="6" width="1" height="1"/><rect x="18" y="6" width="1" height="1"/><rect x="24" y="6" width="1" height="1"/><rect x="28" y="6" width="1" height="1"/><rect x="32" y="6" width="1" height="1"/><rect x="36" y="6" width="1" height="1"/><rect x="42" y="6" width="1" height="1"/><rect x="44" y="6" width="1" height="1"/><rect x="58" y="6" width="1" height="1"/><rect x="60" y="6" width="1" height="1"/><rect x="66" y="6" width="1" height="1"/><rect x="72" y="6" width="1" height="1"/><rect x="78" y="6" width="1" height="1"/><rect x="86" y="6" width="1" height="1"/><rect x="12" y="7" width="1" height="1"/><rect x="18" y="7" width="1" height="1"/><rect x="24" y="7" width="1" height="1"/><rect x="28" y="7" width="1" height="1"/><rect x="32" y="7" width="1" height="1"/><rect x="36" y="7" width="1" height="1"/><rect x="42" y="7" width="1" height="1"/><rect x="45" y="7" width="1" height="1"/><rect x="58" y="7" width="1" height="1"/><rect x="60" y="7" width="1" height="1"/><rect x="66" y="7" width="1" height="1"/><rect x="72" y="7" width="1" height="1"/><rect x="78" y="7" width="1" height="1"/><rect x="82" y="7" width="1" height="1"/><rect x="86" y="7" width="1" height="1"/><rect x="12" y="8" width="1" height="1"/><rect x="18" y="8" width="5" height="1"/><rect x="24" y="8" width="1" height="1"/><rect x="28" y="8" width="1" height="1"/><rect x="32" y="8" width="1" height="1"/><rect x="36" y="8" width="5" height="1"/><rect x="42" y="8" width="1" height="1"/><rect x="46" y="8" width="1" height="1"/><rect x="54" y="8" width="4" height="1"/><rect x="60" y="8" width="5" height="1"/><rect x="66" y="8" width="5" height="1"/><rect x="72" y="8" width="5" height="1"/><rect x="79" y="8" width="3" height="1"/><rect x="86" y="8" width="1" height="1"/></g><rect x="93" y="5" width="2" height="2" fill="#ff00cc"/><rect x="97" y="5" width="2" height="2" fill="#7a00ff"/><rect x="101" y="5" width="2" height="2" fill="#00e5ff"/><rect x="105" y="5" width="2" height="2" fill="#ff00cc"/><rect x="109" y="5" width="2" height="2" fill="#7a00ff"/><rect x="113" y="5" width="2" height="2" fill="#00e5ff"/><rect x="117" y="5" width="2" height="2" fill="#ff00cc"/><rect x="121" y="5" width="2" height="2" fill="#7a00ff"/><rect x="125" y="5" width="2" height="2" fill="#00e5ff"/><rect x="129" y="5" width="2" height="2" fill="#ff00cc"/><rect x="133" y="5" width="2" height="2" fill="#7a00ff"/><rect x="137" y="5" width="2" height="2" fill="#00e5ff"/><rect x="141" y="5" width="2" height="2" fill="#ff00cc"/><rect x="145" y="5" width="2" height="2" fill="#7a00ff"/><rect x="149" y="5" width="2" height="2" fill="#00e5ff"/><rect x="153" y="5" width="2" height="2" fill="#ff00cc"/><rect x="157" y="5" width="2" height="2" fill="#7a00ff"/><rect x="161" y="5" width="2" height="2" fill="#00e5ff"/><rect x="165" y="5" width="2" height="2" fill="#ff00cc"/><rect x="169" y="5" width="2" height="2" fill="#7a00ff"/><rect x="173" y="5" width="2" height="2" fill="#00e5ff"/><rect x="177" y="5" width="2" height="2" fill="#ff00cc"/><rect x="181" y="5" width="2" height="2" fill="#7a00ff"/><rect x="185" y="5" width="2" height="2" fill="#00e5ff"/><rect x="189" y="5" width="2" height="2" fill="#ff00cc"/><rect x="193" y="5" width="2" height="2" fill="#7a00ff"/><rect x="197" y="5" width="2" height="2" fill="#00e5ff"/><rect x="201" y="5" width="2" height="2" fill="#ff00cc"/><rect x="205" y="5" width="2" height="2" fill="#7a00ff"/><rect x="209" y="5" width="2" height="2" fill="#00e5ff"/><rect x="213" y="5" width="2" height="2" fill="#ff00cc"/><rect x="217" y="5" width="2" height="2" fill="#7a00ff"/></svg>